<svg xmlns="http://www.w3.org/2000/svg" width="108" height="38" viewBox="0 0 108 38" fill="none">
<path d="M12.1921 -3.04316e-07C14.7763 -3.04316e-07 15.5884 1.85479 16.2697 3.70668C16.5558 4.49307 23.2714 22.8956 23.4733 23.448C23.5271 23.6021 23.4908 23.855 23.254 23.9466C23.0157 24.0367 19.5265 25.3944 19.3333 25.4671C19.1401 25.5412 18.9236 25.4336 18.8539 25.2403C18.7813 25.0499 17.333 21.0379 17.1703 20.5902H7.21675C7.05987 21.0379 5.59415 25.0586 5.52878 25.2403C5.46195 25.4249 5.25423 25.5499 5.04795 25.4671C4.84167 25.3857 1.33934 24.028 1.13016 23.9466C0.929694 23.8681 0.838177 23.6399 0.907904 23.448C1.15485 22.759 7.76876 4.65152 8.10577 3.70668C8.76237 1.88241 9.602 -3.04316e-07 12.1921 -3.04316e-07ZM0.376235 32.9284C0.167054 32.9284 0 33.1028 0 33.315V37.6162C0 37.8285 0.167054 38 0.376235 38H23.9977C24.2113 38 24.3783 37.8285 24.3783 37.6162V33.315C24.3783 33.1028 24.2113 32.9284 23.9977 32.9284H0.376235ZM12.1688 6.00918L8.8045 16.119H15.5884L12.2124 6.00918H12.1688V6.00918ZM62.6527 22.586C62.1573 22.7532 61.8305 22.7939 61.4412 22.7939C60.6364 22.7939 60.1905 22.4756 60.1905 21.6499C60.1905 20.7894 60.757 20.5016 61.8697 20.5016C62.1414 20.5016 62.4086 20.5408 62.5336 20.5844V21.2007C62.5336 21.865 62.5699 22.3011 62.6527 22.586V22.586ZM65.513 23.5716C64.9188 22.6689 64.7634 22.1369 64.7634 20.9987V18.6875C64.7634 17.4432 64.6181 16.994 64.2898 16.5405C63.8322 15.898 63.0696 15.6189 61.6678 15.6189C60.6756 15.6189 59.7125 15.7265 58.7799 15.9649L59.1169 17.6075C59.7474 17.5188 60.4084 17.4432 60.8747 17.4432C62.3636 17.4432 62.5336 17.6583 62.5336 18.7761V19.1933C62.2024 19.1047 61.8305 19.0407 61.3991 19.0407C59.1576 19.0407 57.9737 20.1382 57.9737 21.9552C57.9737 23.6588 59.239 24.5876 60.7802 24.5876C61.3555 24.5876 61.9569 24.4815 62.4333 24.2867C62.721 24.1617 62.8459 24.0876 63.2178 23.8463C63.4415 24.1719 63.8904 24.5048 64.0734 24.5673L65.513 23.5716V23.5716ZM87.6847 22.586C87.1865 22.7532 86.8654 22.7939 86.4732 22.7939C85.6655 22.7939 85.2138 22.4756 85.2138 21.6499C85.2138 20.7894 85.7876 20.5016 86.9032 20.5016C87.1748 20.5016 87.4436 20.5408 87.5656 20.5844V21.2007C87.5656 21.865 87.6005 22.3011 87.6847 22.586V22.586ZM90.5479 23.5716C89.9494 22.6689 89.7969 22.1369 89.7969 20.9987V18.6875C89.7969 17.4432 89.6487 16.994 89.3175 16.5405C88.8657 15.898 88.1016 15.6189 86.6955 15.6189C85.7048 15.6189 84.7358 15.7265 83.8032 15.9649L84.1359 17.6075C84.7678 17.5188 85.4302 17.4432 85.9096 17.4432C87.3898 17.4432 87.5656 17.6583 87.5656 18.7761V19.1933C87.2344 19.1047 86.8654 19.0407 86.4253 19.0407C84.1809 19.0407 82.9927 20.1382 82.9927 21.9552C82.9927 23.6588 84.2608 24.5876 85.8094 24.5876C86.3919 24.5876 86.9874 24.4815 87.4596 24.2867C87.7515 24.1617 87.8721 24.0876 88.244 23.8463C88.4706 24.1719 88.9195 24.5048 89.104 24.5673L90.5479 23.5716V23.5716ZM108 24.3943C108 24.3943 106.771 21.7735 106.47 21.1775C106.132 20.5059 105.818 20.0422 105.127 19.8751V19.8373C105.59 19.7486 105.959 19.4681 106.363 18.6104C106.745 17.7746 106.858 17.5944 107.083 17.3952C107.304 17.1975 107.606 17.2688 107.606 17.2688L107.72 15.7236C107.399 15.68 107.043 15.6785 106.675 15.6989C106.065 15.7352 105.75 15.9111 105.449 16.2134C105.214 16.4446 105.054 16.7905 104.856 17.1874C104.647 17.6205 104.482 17.9694 104.264 18.4098C104.047 18.8619 103.946 19.0654 103.363 19.0654H102.984V12.2204H100.74V24.3943H102.984V20.894L103.291 20.8882C103.934 20.8882 104.047 21.0496 104.387 21.7284C104.785 22.5381 105.548 24.3943 105.548 24.3943H108V24.3943ZM44.775 24.3943H47.365L43.4472 12.4239C43.0347 12.2858 42.5248 12.2001 41.9801 12.2001C41.3859 12.2001 41.1738 12.2786 40.709 12.4239L36.5631 24.3943H39.0486C39.0486 24.3943 39.3842 23.3448 39.7793 22.0438H44.0733C44.4568 23.3434 44.775 24.3943 44.775 24.3943ZM40.4098 20.0364C40.4098 20.0364 41.1274 17.6336 41.2392 17.26C41.5239 16.2919 41.9568 14.754 41.9568 14.754H42.028C42.028 14.754 42.4289 16.3472 42.6904 17.2426C42.7892 17.5987 43.4748 20.0364 43.4748 20.0364H40.4098ZM69.3363 18.6671C68.5446 18.6671 67.9011 19.314 67.9011 20.1062C67.9011 20.9042 68.5446 21.5467 69.3363 21.5467C70.1295 21.5467 70.7701 20.9042 70.7701 20.1062C70.7701 19.314 70.1295 18.6671 69.3363 18.6671ZM50.4403 12.2204H48.1901V24.3929H50.4403V12.2204V12.2204ZM95.1455 17.5537C96.389 17.5798 96.543 17.8371 96.543 18.8808V24.3943H98.7728V18.6875C98.7728 17.4432 98.6275 16.994 98.2963 16.5405C97.8387 15.898 96.9395 15.6189 95.4186 15.6189C93.9137 15.6189 92.9549 15.7788 91.7216 16.1466V24.3943H93.9747V17.6583C94.5659 17.5726 94.6705 17.5537 95.1455 17.5537V17.5537ZM56.0054 12.0038C54.5992 12.0038 53.8337 12.2829 53.3834 12.924C53.0521 13.3789 52.9054 13.8383 52.9054 15.0855V16.1466H51.7883V17.9665H52.9054V24.3943H55.1367L55.1309 17.9665H57.3549V16.1466H55.1309L55.1367 15.1712C55.1367 14.0549 55.3067 13.8383 56.7971 13.8383C56.9583 13.8383 57.1399 13.847 57.3331 13.8615L57.6846 12.1128C57.1341 12.0402 56.5705 12.0038 56.0054 12.0038V12.0038ZM73.9078 12.1172C74.6734 12.0721 76.3846 12.0082 77.4581 12.0082C77.6542 12.0082 77.8576 12.0096 78.0609 12.0198C80.1716 12.0198 81.3817 13.5577 81.3817 15.3631C81.3817 16.5914 80.8195 17.4069 79.5019 17.8924C81.0519 18.2354 81.864 19.4463 81.864 20.9275C81.864 22.0148 81.5574 22.8782 80.9953 23.4669C80.266 24.185 79.162 24.5876 77.692 24.5876C76.3846 24.5876 74.7431 24.5469 73.9078 24.4975V12.1172V12.1172ZM77.4581 14.1115C77.0862 14.1115 76.6257 14.1188 76.1696 14.1348V17.058H77.4595C77.9709 17.058 78.382 16.9155 78.6623 16.6408C78.9296 16.3821 79.0691 16.0158 79.0691 15.5811C79.0691 14.6465 78.5635 14.1174 77.6237 14.1115H77.4581V14.1115ZM77.5046 22.4886H77.6019C78.7742 22.4886 79.4918 21.865 79.5005 20.6091C79.4889 20.1585 79.316 19.7428 79.0066 19.4419C78.6681 19.1018 78.1888 18.9244 77.6266 18.9244H76.1696V22.4756C76.5807 22.4843 77.0339 22.4857 77.5046 22.4886" fill="white"/>
</svg>