<svg xmlns="http://www.w3.org/2000/svg" width="45" height="37" viewBox="0 0 45 37" fill="none">
<path d="M8.18714 35.9362V33.5914C8.20065 33.3942 8.17247 33.1963 8.10447 33.011C8.03647 32.8257 7.93022 32.6572 7.79279 32.5167C7.65536 32.3761 7.48991 32.2669 7.30747 32.1961C7.12502 32.1254 6.92977 32.0948 6.73472 32.1063C6.4794 32.0894 6.22428 32.1421 5.99597 32.259C5.76767 32.3758 5.57456 32.5526 5.43681 32.7707C5.31123 32.5591 5.13156 32.3857 4.91673 32.2688C4.7019 32.1519 4.45987 32.0957 4.21615 32.1063C4.0037 32.0955 3.79213 32.141 3.60241 32.2383C3.4127 32.3356 3.25141 32.4814 3.13456 32.6613V32.2001H2.33109V35.9362H3.14228V33.8806C3.12503 33.7528 3.13588 33.6228 3.17407 33.4997C3.21227 33.3767 3.27685 33.2638 3.36321 33.1689C3.44957 33.0741 3.55557 32.9997 3.67363 32.9511C3.7917 32.9026 3.91891 32.881 4.04618 32.8879C4.57926 32.8879 4.84965 33.2397 4.84965 33.8727V35.9518H5.66085V33.8806C5.6443 33.7529 5.65565 33.6232 5.6941 33.5005C5.73256 33.3778 5.79717 33.2651 5.88338 33.1704C5.96959 33.0757 6.0753 33.0014 6.19304 32.9526C6.31077 32.9038 6.43767 32.8817 6.56475 32.8879C7.11328 32.8879 7.37595 33.2397 7.37595 33.8727V35.9518L8.18714 35.9362ZM20.189 32.2001H18.8679V31.0668H18.0567V32.2001H17.3228V32.9426H18.0721V34.6622C18.0721 35.5297 18.4043 36.0456 19.3546 36.0456C19.7096 36.0468 20.0578 35.9465 20.3589 35.7564L20.1272 35.0608C19.9117 35.1908 19.6672 35.2634 19.4164 35.2718C19.0301 35.2718 18.8833 35.0217 18.8833 34.6465V32.9426H20.1967L20.189 32.2001ZM27.0416 32.1063C26.8458 32.1005 26.6519 32.1483 26.4806 32.2445C26.3093 32.3408 26.1668 32.4821 26.0682 32.6535V32.2001H25.2725V35.9362H26.0759V33.8415C26.0759 33.224 26.3386 32.8801 26.8485 32.8801C27.0204 32.8777 27.191 32.9096 27.3507 32.9739L27.5979 32.1923C27.4144 32.1259 27.2211 32.0915 27.0262 32.0907L27.0416 32.1063ZM16.6815 32.4971C16.2267 32.2236 15.7038 32.0879 15.175 32.1063C14.2402 32.1063 13.6299 32.5597 13.6299 33.3022C13.6299 33.9118 14.078 34.287 14.9046 34.4042L15.2909 34.4589C15.7313 34.5215 15.9399 34.6387 15.9399 34.8497C15.9399 35.1389 15.6463 35.3031 15.0978 35.3031C14.6565 35.316 14.2239 35.1783 13.8694 34.9123L13.4831 35.5454C13.9511 35.876 14.5117 36.0458 15.0823 36.0299C16.1485 36.0299 16.7665 35.5219 16.7665 34.8107C16.7665 34.0994 16.2798 33.8102 15.4763 33.693L15.09 33.6383C14.7424 33.5914 14.4643 33.521 14.4643 33.2709C14.4643 33.0208 14.7269 32.8332 15.1673 32.8332C15.5743 32.838 15.9733 32.9483 16.3261 33.1537L16.6815 32.4971ZM38.2014 32.1063C38.0055 32.1005 37.8117 32.1483 37.6403 32.2445C37.469 32.3408 37.3265 32.4821 37.2279 32.6535V32.2001H36.4322V35.9362H37.2357V33.8415C37.2357 33.224 37.4983 32.8801 38.0082 32.8801C38.1801 32.8777 38.3507 32.9096 38.5104 32.9739L38.7576 32.1923C38.5741 32.1259 38.3808 32.0915 38.1859 32.0907L38.2014 32.1063ZM27.849 34.0603C27.8394 34.3229 27.8841 34.5845 27.9803 34.8286C28.0764 35.0727 28.2219 35.2937 28.4073 35.4776C28.5927 35.6616 28.8141 35.8043 29.0572 35.8967C29.3003 35.9891 29.5598 36.0292 29.819 36.0143C30.3014 36.0391 30.7756 35.8802 31.1478 35.5688L30.7616 34.9123C30.4838 35.1265 30.1451 35.2444 29.7959 35.2484C29.4989 35.224 29.2218 35.0875 29.0198 34.8659C28.8178 34.6444 28.7056 34.354 28.7056 34.0525C28.7056 33.7511 28.8178 33.4607 29.0198 33.2391C29.2218 33.0175 29.4989 32.881 29.7959 32.8567C30.1451 32.8606 30.4838 32.9785 30.7616 33.1928L31.1478 32.5362C30.7756 32.2248 30.3014 32.0659 29.819 32.0907C29.5598 32.0758 29.3003 32.1159 29.0572 32.2083C28.8141 32.3007 28.5927 32.4435 28.4073 32.6274C28.2219 32.8113 28.0764 33.0324 27.9803 33.2764C27.8841 33.5205 27.8394 33.7821 27.849 34.0447V34.0603ZM35.3738 34.0603V32.2001H34.5703V32.6535C34.4339 32.4758 34.2576 32.3336 34.0561 32.2385C33.8546 32.1433 33.6337 32.098 33.4115 32.1063C32.8992 32.1063 32.408 32.3122 32.0457 32.6786C31.6835 33.0451 31.48 33.5421 31.48 34.0603C31.48 34.5786 31.6835 35.0756 32.0457 35.442C32.408 35.8085 32.8992 36.0143 33.4115 36.0143C33.6337 36.0226 33.8546 35.9773 34.0561 35.8822C34.2576 35.7871 34.4339 35.6448 34.5703 35.4672V35.9205H35.3738V34.0603ZM32.384 34.0603C32.3968 33.8404 32.4729 33.6291 32.6029 33.4524C32.7329 33.2757 32.9112 33.1413 33.1157 33.0658C33.3203 32.9903 33.5422 32.9769 33.7542 33.0274C33.9661 33.0779 34.1589 33.19 34.3087 33.3499C34.4584 33.5098 34.5587 33.7105 34.5972 33.9273C34.6356 34.1442 34.6106 34.3676 34.5251 34.5702C34.4396 34.7729 34.2974 34.9457 34.116 35.0676C33.9346 35.1895 33.7219 35.255 33.5042 35.2562C33.3512 35.2581 33.1995 35.228 33.0586 35.1678C32.9177 35.1076 32.7907 35.0185 32.6855 34.9062C32.5803 34.7939 32.4991 34.6607 32.4473 34.5152C32.3954 34.3696 32.3738 34.2147 32.384 34.0603V34.0603ZM22.6882 32.1063C22.176 32.1136 21.6876 32.3264 21.3304 32.698C20.9733 33.0696 20.7767 33.5695 20.7839 34.0877C20.791 34.6059 21.0014 35.1 21.3687 35.4613C21.736 35.8227 22.2301 36.0216 22.7423 36.0143C23.2981 36.0432 23.8446 35.8621 24.2759 35.5063L23.8896 34.9045C23.5845 35.1519 23.2067 35.2895 22.8157 35.2952C22.5501 35.3184 22.2861 35.2357 22.0798 35.065C21.8735 34.8942 21.7411 34.6487 21.7109 34.3808H24.4535C24.4535 34.2792 24.4535 34.1776 24.4535 34.0681C24.4535 32.8957 23.7351 32.1142 22.6998 32.1142L22.6882 32.1063ZM22.6882 32.8332C22.8085 32.8306 22.928 32.852 23.0401 32.8962C23.1521 32.9404 23.2545 33.0064 23.3413 33.0906C23.4281 33.1748 23.4977 33.2755 23.546 33.3869C23.5944 33.4983 23.6205 33.6182 23.623 33.7399H21.6916C21.7056 33.489 21.8161 33.2536 21.9995 33.0842C22.1829 32.9147 22.4246 32.8247 22.6728 32.8332H22.6882ZM42.8175 34.0681V30.6995H42.0449V32.6535C41.9085 32.4758 41.7322 32.3336 41.5307 32.2385C41.3292 32.1433 41.1083 32.098 40.8861 32.1063C40.3738 32.1063 39.8825 32.3122 39.5203 32.6786C39.1581 33.0451 38.9546 33.5421 38.9546 34.0603C38.9546 34.5786 39.1581 35.0756 39.5203 35.442C39.8825 35.8085 40.3738 36.0143 40.8861 36.0143C41.1083 36.0226 41.3292 35.9773 41.5307 35.8822C41.7322 35.7871 41.9085 35.6448 42.0449 35.4672V35.9205H42.8175V34.0681ZM44.1579 35.3929C44.2081 35.3923 44.258 35.4016 44.3047 35.4203C44.349 35.4386 44.3896 35.4651 44.4244 35.4985C44.4584 35.5322 44.4859 35.5719 44.5055 35.6157C44.5251 35.6613 44.5352 35.7106 44.5352 35.7603C44.5352 35.81 44.5251 35.8593 44.5055 35.9049C44.4859 35.9487 44.4584 35.9884 44.4244 36.0221C44.3896 36.0555 44.349 36.082 44.3047 36.1003C44.2584 36.1209 44.2084 36.1316 44.1579 36.1316C44.0847 36.131 44.0131 36.1094 43.9515 36.0693C43.89 36.0291 43.841 35.9721 43.8102 35.9049C43.7909 35.8592 43.7809 35.81 43.7809 35.7603C43.7809 35.7106 43.7909 35.6614 43.8102 35.6157C43.8299 35.5719 43.8574 35.5322 43.8913 35.4985C43.9261 35.4651 43.9667 35.4386 44.0111 35.4203C44.0614 35.4001 44.1154 35.3907 44.1695 35.3929H44.1579ZM44.1579 36.0534C44.1964 36.0536 44.2346 36.0456 44.2699 36.0299C44.3031 36.0149 44.3333 35.9937 44.3587 35.9674C44.4071 35.9141 44.4339 35.8444 44.4339 35.772C44.4339 35.6997 44.4071 35.63 44.3587 35.5766C44.3333 35.5502 44.3032 35.529 44.2699 35.5141C44.2346 35.4985 44.1964 35.4905 44.1579 35.4906C44.1194 35.4909 44.0813 35.4988 44.0459 35.5141C44.0111 35.5285 43.9796 35.5497 43.9531 35.5766C43.9048 35.63 43.878 35.6997 43.878 35.772C43.878 35.8444 43.9048 35.9141 43.9531 35.9674C43.9797 35.9942 44.0112 36.0155 44.0459 36.0299C44.0848 36.047 44.1271 36.055 44.1695 36.0534H44.1579ZM44.1811 35.5883C44.2171 35.5866 44.2526 35.5976 44.2815 35.6196C44.2933 35.6295 44.3026 35.6421 44.3087 35.6564C44.3147 35.6707 44.3173 35.6862 44.3163 35.7017C44.3168 35.7147 44.3147 35.7276 44.31 35.7397C44.3054 35.7518 44.2983 35.7628 44.2892 35.772C44.2668 35.7926 44.2383 35.805 44.2081 35.8072L44.3201 35.9362H44.2313L44.127 35.8072H44.0922V35.9362H44.0188V35.5923L44.1811 35.5883ZM44.0961 35.6548V35.7486H44.1811C44.1962 35.7531 44.2123 35.7531 44.2274 35.7486C44.2301 35.7431 44.2315 35.7371 44.2315 35.731C44.2315 35.7249 44.2301 35.7189 44.2274 35.7134C44.2301 35.7079 44.2315 35.7019 44.2315 35.6958C44.2315 35.6897 44.2301 35.6837 44.2274 35.6782C44.2123 35.6737 44.1962 35.6737 44.1811 35.6782L44.0961 35.6548ZM39.847 34.0681C39.8598 33.8482 39.9359 33.6369 40.0659 33.4602C40.1959 33.2835 40.3742 33.1491 40.5787 33.0736C40.7833 32.9981 41.0052 32.9848 41.2172 33.0352C41.4291 33.0857 41.6219 33.1978 41.7717 33.3577C41.9214 33.5176 42.0217 33.7183 42.0602 33.9352C42.0986 34.152 42.0736 34.3755 41.9881 34.5781C41.9026 34.7807 41.7604 34.9535 41.579 35.0754C41.3976 35.1973 41.1849 35.2628 40.9672 35.264C40.8142 35.2659 40.6625 35.2359 40.5216 35.1756C40.3807 35.1154 40.2537 35.0263 40.1485 34.914C40.0433 34.8017 39.9621 34.6685 39.9103 34.523C39.8584 34.3774 39.8368 34.2226 39.847 34.0681V34.0681ZM12.7183 34.0681V32.2001H11.9148V32.6535C11.7783 32.4758 11.6021 32.3336 11.4006 32.2385C11.1991 32.1433 10.9781 32.098 10.7559 32.1063C10.2437 32.1063 9.75242 32.3122 9.39021 32.6786C9.028 33.0451 8.82451 33.5421 8.82451 34.0603C8.82451 34.5786 9.028 35.0756 9.39021 35.442C9.75242 35.8085 10.2437 36.0143 10.7559 36.0143C10.9781 36.0226 11.1991 35.9773 11.4006 35.8822C11.6021 35.7871 11.7783 35.6448 11.9148 35.4672V35.9205H12.7183V34.0681ZM9.72842 34.0681C9.74123 33.8482 9.81733 33.6369 9.94736 33.4602C10.0774 33.2835 10.2556 33.1491 10.4602 33.0736C10.6648 32.9981 10.8867 32.9848 11.0986 33.0352C11.3106 33.0857 11.5033 33.1978 11.6531 33.3577C11.8029 33.5176 11.9032 33.7183 11.9417 33.9352C11.9801 34.152 11.955 34.3755 11.8695 34.5781C11.784 34.7807 11.6418 34.9535 11.4604 35.0754C11.279 35.1973 11.0664 35.2628 10.8486 35.264C10.695 35.267 10.5425 35.2378 10.4007 35.178C10.2589 35.1183 10.1309 35.0294 10.0248 34.9169C9.91877 34.8045 9.83697 34.671 9.78462 34.5249C9.73226 34.3787 9.71049 34.2232 9.72069 34.0681H9.72842Z" fill="white"/>
<path d="M28.5829 3.73071H16.4149V25.8538H28.5829V3.73071Z" fill="black"/>
<path d="M17.1876 14.7943C17.1853 12.6634 17.6624 10.5599 18.5826 8.64312C19.5028 6.72633 20.8421 5.0465 22.499 3.73083C20.4475 2.09973 17.9838 1.08544 15.3894 0.803891C12.7951 0.522345 10.1748 0.984899 7.82798 2.13869C5.48119 3.29248 3.5026 5.09096 2.11834 7.32857C0.734079 9.56618 0 12.1527 0 14.7924C0 17.4321 0.734079 20.0186 2.11834 22.2562C3.5026 24.4938 5.48119 26.2923 7.82798 27.4461C10.1748 28.5998 12.7951 29.0624 15.3894 28.7809C17.9838 28.4993 20.4475 27.485 22.499 25.8539C20.8426 24.5387 19.5036 22.8595 18.5835 20.9434C17.6633 19.0273 17.1859 16.9246 17.1876 14.7943V14.7943Z" fill="white"/>
<path d="M45 14.7938C44.9999 17.4337 44.2656 20.0203 42.8811 22.258C41.4966 24.4957 39.5177 26.2941 37.1707 27.4478C34.8236 28.6014 32.203 29.0636 29.6085 28.7817C27.014 28.4997 24.5503 27.485 22.4989 25.8533C24.1547 24.5369 25.4932 22.8572 26.4137 20.9411C27.3341 19.0249 27.8124 16.9223 27.8124 14.7918C27.8124 12.6613 27.3341 10.5587 26.4137 8.64253C25.4932 6.72635 24.1547 5.04669 22.4989 3.73026C24.5503 2.09865 27.014 1.08386 29.6085 0.801913C32.203 0.519963 34.8236 0.98222 37.1707 2.13585C39.5177 3.28947 41.4966 5.08792 42.8811 7.3256C44.2656 9.56329 44.9999 12.1499 45 14.7898V14.7938Z" fill="white"/>
<path d="M43.6712 23.5085V23.0552H43.8527V22.9614H43.393V23.0552H43.59V23.5085H43.6712ZM44.5635 23.5085V22.9614H44.4244L44.2622 23.3522L44.0999 22.9614H43.9763V23.5085H44.0768V23.0982L44.2274 23.4538H44.3317L44.4824 23.0982V23.5125L44.5635 23.5085Z" fill="#F79E1B"/>
</svg>