<svg xmlns="http://www.w3.org/2000/svg" width="90" height="32" viewBox="0 0 90 32" fill="none">
<path fill-rule="evenodd" clip-rule="evenodd" d="M85.0755 12.5485C85.0755 11.573 85.845 10.7776 86.7685 10.7776C87.7175 10.7776 88.461 11.573 88.461 12.5485C88.461 13.5235 87.7175 14.3189 86.7685 14.3189C85.845 14.3444 85.0755 13.549 85.0755 12.5485ZM86.7685 13.9337C87.4865 13.9337 88.051 13.3179 88.051 12.574C88.051 11.8296 87.461 11.2138 86.7685 11.2138C86.05 11.2138 85.486 11.8296 85.486 12.574C85.486 13.3179 86.05 13.9337 86.7685 13.9337ZM86.5375 13.3439H86.1785V11.7786H86.8195C86.948 11.7786 87.1015 11.7786 87.2045 11.8551C87.3325 11.9322 87.384 12.0862 87.384 12.2403C87.384 12.4199 87.2815 12.574 87.1275 12.625L87.4095 13.3179H87.0245L86.794 12.7021H86.5375V13.3439ZM86.5375 12.4714H86.7425C86.8195 12.4714 86.8965 12.4714 86.948 12.4459C86.999 12.4199 87.0245 12.3429 87.0245 12.2658C87.0245 12.2148 86.999 12.1378 86.948 12.1123C86.8965 12.0862 86.794 12.0862 86.7425 12.0862H86.563L86.5375 12.4714Z" fill="white"/>
<path fill-rule="evenodd" clip-rule="evenodd" d="M60.838 0.718615L60.3765 3.74663C59.376 3.20786 58.632 3.00226 57.837 3.00226C55.734 3.00226 54.246 5.15783 54.246 8.21186C54.246 10.3159 55.2465 11.5991 56.888 11.5991C57.5805 11.5991 58.35 11.3679 59.299 10.8802L58.8115 14.0623C57.76 14.3704 57.093 14.473 56.298 14.473C53.246 14.473 51.348 12.1633 51.348 8.46799C51.348 3.49 53.964 -0.000244141 57.7345 -0.000244141C58.2215 -0.000244141 58.6575 0.0512816 59.017 0.153833L60.1965 0.461987C60.5045 0.590051 60.5815 0.616064 60.838 0.718615Z" fill="white"/>
<path fill-rule="evenodd" clip-rule="evenodd" d="M51.425 2.79724C51.348 2.77173 51.2455 2.77173 51.143 2.77173C50.2195 2.77173 49.681 3.25897 48.809 4.61915L49.0655 2.89979H46.5005L44.7565 14.2165H47.6035C48.629 7.28799 48.8855 6.1074 50.245 6.1074C50.322 6.1074 50.3475 6.1074 50.45 6.1074C50.7065 4.74772 51.04 3.74672 51.5275 2.82275L51.425 2.79724Z" fill="white"/>
<path fill-rule="evenodd" clip-rule="evenodd" d="M34.4715 14.0617C33.702 14.3184 33.0865 14.4469 32.445 14.4469C31.009 14.4469 30.214 13.574 30.214 11.9577C30.214 11.6495 30.2395 11.2904 30.2905 10.9312L30.47 9.82762L30.5985 8.92967L31.8295 1.20581H34.651L34.3175 2.87364H35.7795L35.369 5.61952L33.9325 5.61902L33.189 10.3409C33.1635 10.546 33.1375 10.7001 33.1375 10.8026C33.1375 11.3929 33.4455 11.6495 34.1125 11.6495C34.446 11.6495 34.6765 11.624 34.8815 11.547L34.4715 14.0617Z" fill="white"/>
<path fill-rule="evenodd" clip-rule="evenodd" d="M23.2885 6.46648C23.2885 7.9037 23.9555 8.87868 25.443 9.62306C26.5715 10.1873 26.777 10.3669 26.777 10.8802C26.777 11.573 26.264 11.9067 25.161 11.9067C24.3145 11.9067 23.545 11.7786 22.622 11.445L22.237 14.0623L22.3655 14.0878L22.8785 14.1908C23.058 14.2164 23.2885 14.2674 23.622 14.2934C24.289 14.3444 24.8275 14.3959 25.1865 14.3959C28.162 14.3959 29.547 13.1898 29.547 10.6236C29.547 9.08379 28.9825 8.16033 27.546 7.46748C26.3665 6.9027 26.238 6.77463 26.238 6.23536C26.238 5.61955 26.7 5.3119 27.623 5.3119C28.1875 5.3119 28.931 5.38894 29.6495 5.49149L30.06 2.87418C29.316 2.74562 28.213 2.64307 27.572 2.64307C24.366 2.64307 23.263 4.36243 23.2885 6.46648Z" fill="white"/>
<path fill-rule="evenodd" clip-rule="evenodd" d="M83.434 14.1908H80.741L80.869 13.0873C80.0995 13.9597 79.279 14.3444 78.253 14.3444C76.1755 14.3444 74.816 12.4715 74.816 9.64854C74.816 5.87616 76.9195 2.69457 79.433 2.69457C80.536 2.69457 81.3565 3.18181 82.1515 4.23384L82.767 0.256348H85.563L83.434 14.1908ZM79.2535 11.5475C80.587 11.5475 81.5105 9.98221 81.5105 7.72408C81.5105 6.28686 80.972 5.49147 79.997 5.49147C78.7145 5.49147 77.7915 7.08276 77.7915 9.28936C77.7915 10.7776 78.2785 11.5475 79.2535 11.5475Z" fill="white"/>
<path fill-rule="evenodd" clip-rule="evenodd" d="M43.4485 13.9597C42.4735 14.2674 41.5505 14.4215 40.5245 14.4215C37.3695 14.4215 35.7025 12.6766 35.7025 9.34092C35.7025 5.44047 37.8055 2.59204 40.6525 2.59204C42.9865 2.59204 44.4745 4.20835 44.4745 6.72311C44.4745 7.54452 44.3715 8.36543 44.115 9.5205H38.4725C38.447 9.70009 38.447 9.77713 38.447 9.87968C38.447 11.2139 39.2935 11.8812 40.935 11.8812C41.935 11.8812 42.8585 11.6501 43.8845 11.1628L43.4485 13.9597ZM41.858 7.21085C41.8835 6.97973 41.8835 6.77463 41.8835 6.64607C41.8835 5.72261 41.3965 5.18334 40.55 5.18334C39.6525 5.18334 39.011 5.9022 38.7545 7.21085H41.858Z" fill="white"/>
<path fill-rule="evenodd" clip-rule="evenodd" d="M11.901 14.1907H9.07951L10.6955 3.48983L7.05351 14.1907H5.12951L4.89901 3.56687L3.18051 14.1907H0.538513L2.74451 0.282227H6.82251L6.92501 8.90454L9.69501 0.282227H14.1065L11.901 14.1907Z" fill="white"/>
<path fill-rule="evenodd" clip-rule="evenodd" d="M19.2105 9.1607C18.903 9.13519 18.7745 9.10968 18.5695 9.10968C16.9535 9.10968 16.1585 9.69997 16.1585 10.829C16.1585 11.5219 16.569 11.9836 17.1845 11.9836C18.313 11.9836 19.1595 10.829 19.2105 9.1607ZM21.2625 14.1907H18.903L18.954 13.0101C18.236 13.9596 17.287 14.3703 15.979 14.3703C14.44 14.3703 13.3885 13.1127 13.3885 11.2908C13.3885 8.51938 15.235 6.92859 18.364 6.92859C18.6975 6.92859 19.108 6.9541 19.5185 7.00563C19.5955 6.62043 19.621 6.46636 19.621 6.26125C19.621 5.51688 19.1335 5.23474 17.8 5.23474C17.005 5.23474 16.0815 5.3633 15.4405 5.56841L15.081 5.69647L14.825 5.77351L15.2095 3.23324C16.62 2.79702 17.569 2.61743 18.595 2.61743C21.0315 2.61743 22.314 3.77201 22.314 5.92759C22.314 6.49237 22.2625 6.90257 22.083 8.18572L21.519 12.2147L21.4165 12.9331L21.3395 13.4979L21.288 13.9081L21.2625 14.1907Z" fill="white"/>
<path fill-rule="evenodd" clip-rule="evenodd" d="M65.7365 9.16083C65.4545 9.13531 65.3005 9.1098 65.0955 9.1098C63.4795 9.1098 62.659 9.7001 62.659 10.8292C62.659 11.522 63.0695 11.9837 63.685 11.9837C64.839 11.9837 65.6855 10.8292 65.7365 9.16083ZM67.7885 14.1908H65.429L65.48 13.0103C64.762 13.9597 63.813 14.3704 62.505 14.3704C60.966 14.3704 59.9145 13.1128 59.9145 11.2909C59.9145 8.51951 61.7615 6.92871 64.8905 6.92871C65.198 6.92871 65.634 6.95422 66.0445 7.00575C66.1215 6.62056 66.147 6.46648 66.147 6.26138C66.147 5.517 65.6595 5.23486 64.326 5.23486C63.531 5.23486 62.6075 5.36343 61.9665 5.56853L61.556 5.67108L61.2995 5.74812L61.6845 3.20785C63.095 2.77163 64.044 2.59204 65.07 2.59204C67.5065 2.59204 68.789 3.74662 68.789 5.9022C68.789 6.46648 68.7375 6.87718 68.558 8.16033L67.968 12.1633L67.891 12.8817L67.814 13.4465L67.763 13.8317L67.7885 14.1908Z" fill="white"/>
<path fill-rule="evenodd" clip-rule="evenodd" d="M75.714 2.79724C75.637 2.77173 75.5345 2.77173 75.432 2.77173C74.5085 2.77173 73.97 3.25897 73.0975 4.61915L73.354 2.89979H70.7895L69.0455 14.2165H71.8925C72.918 7.28799 73.1745 6.1074 74.534 6.1074C74.611 6.1074 74.611 6.1074 74.7395 6.1074C74.9955 4.74772 75.355 3.74672 75.8165 2.82275L75.714 2.79724Z" fill="white"/>
<path fill-rule="evenodd" clip-rule="evenodd" d="M63.813 25.1993C63.813 27.7656 63.018 29.2794 61.7615 29.2794C60.838 29.3049 60.2995 28.2784 60.2995 26.7646C60.2995 24.9682 61.12 22.9157 62.4025 22.9157C63.454 22.9157 63.813 24.0187 63.813 25.1993ZM66.609 25.2248C66.609 22.3764 65.198 20.1443 62.556 20.1443C59.504 20.1443 57.5295 22.8386 57.5295 26.8161C57.5295 29.664 58.709 31.9997 61.5815 31.9997C64.48 31.9997 66.609 29.9467 66.609 25.2248Z" fill="white"/>
<path fill-rule="evenodd" clip-rule="evenodd" d="M58.427 18.1681L57.991 21.1966C57.042 20.6573 56.375 20.4522 55.631 20.4522C53.6565 20.4522 52.2715 22.6078 52.2715 25.6613C52.2715 27.7654 53.1945 29.0485 54.7335 29.0485C55.4005 29.0485 56.1185 28.8179 56.9905 28.3301L56.529 31.5122C55.554 31.8199 54.913 31.9224 54.169 31.9224C51.3225 31.9224 49.527 29.6133 49.527 25.9179C49.527 20.9395 51.989 17.4497 55.503 17.4497C55.9645 17.4497 56.3495 17.5012 56.683 17.6038L57.76 17.9119C58.119 18.0145 58.196 18.04 58.427 18.1681Z" fill="white"/>
<path fill-rule="evenodd" clip-rule="evenodd" d="M40.909 20.2208C40.832 20.1953 40.7295 20.1953 40.627 20.1953C39.755 20.1953 39.2675 20.6831 38.447 22.0427L38.7035 20.3234H36.318L34.702 31.64H37.344C38.293 24.7116 38.5495 23.5315 39.806 23.5315C39.883 23.5315 39.883 23.5315 40.0115 23.557C40.242 22.1968 40.5755 21.1963 41.0115 20.2724L40.909 20.2208Z" fill="white"/>
<path fill-rule="evenodd" clip-rule="evenodd" d="M75.483 31.5376H72.9695L73.0975 30.4341C72.3795 31.3065 71.61 31.6917 70.6355 31.6917C68.712 31.6917 67.4295 29.8182 67.4295 26.9958C67.4295 23.2234 69.4045 20.0414 71.7385 20.0414C72.764 20.0414 73.5595 20.5291 74.2775 21.6066L74.8675 17.6292H77.4835L75.483 31.5376ZM71.559 28.8688C72.8155 28.8688 73.662 27.3035 73.662 25.0454C73.662 23.6086 73.1745 22.8388 72.2515 22.8388C71.046 22.8388 70.1995 24.404 70.1995 26.6362C70.1995 28.1249 70.661 28.8688 71.559 28.8688Z" fill="white"/>
<path fill-rule="evenodd" clip-rule="evenodd" d="M16.0815 31.4861C15.184 31.7942 14.312 31.9483 13.363 31.9483C10.413 31.9483 8.87451 30.2035 8.87451 26.8673C8.87451 22.9923 10.8495 20.1184 13.491 20.1184C15.671 20.1184 17.056 21.7092 17.056 24.25C17.056 25.0714 16.9535 25.8923 16.7225 27.0469H11.465C11.439 27.2265 11.439 27.3035 11.439 27.4061C11.439 28.7147 12.2345 29.382 13.7735 29.382C14.722 29.382 15.5685 29.1514 16.5175 28.6637L16.0815 31.4861ZM14.594 24.7372C14.594 24.5066 14.6195 24.3015 14.6195 24.1729C14.6195 23.249 14.158 22.7102 13.363 22.7102C12.5165 22.7102 11.9265 23.4286 11.67 24.7372H14.594Z" fill="white"/>
<path fill-rule="evenodd" clip-rule="evenodd" d="M47.5775 31.4861C46.68 31.7942 45.808 31.9483 44.859 31.9483C41.8835 31.9483 40.345 30.2035 40.345 26.8673C40.345 22.9923 42.3195 20.1184 44.9615 20.1184C47.1415 20.1184 48.5525 21.7092 48.5525 24.25C48.5525 25.0714 48.45 25.8923 48.219 27.0469H42.961C42.935 27.2265 42.935 27.3035 42.935 27.4061C42.935 28.7147 43.7305 29.382 45.2695 29.382C46.2185 29.382 47.065 29.1514 48.0135 28.6637L47.5775 31.4861ZM46.09 24.7372C46.1155 24.5066 46.1155 24.3015 46.1155 24.1729C46.1155 23.249 45.654 22.7102 44.859 22.7102C44.0125 22.7102 43.4225 23.4286 43.166 24.7372H46.09Z" fill="white"/>
<path fill-rule="evenodd" clip-rule="evenodd" d="M84.5115 31.4861C83.588 31.7942 82.716 31.9483 81.7925 31.9483C78.843 31.9483 77.2785 30.2035 77.2785 26.8673C77.2785 22.9923 79.2535 20.1184 81.921 20.1184C84.101 20.1184 85.486 21.7092 85.486 24.25C85.486 25.0714 85.3835 25.8923 85.1525 27.0469H79.8945C79.869 27.2265 79.869 27.3035 79.869 27.4061C79.869 28.7147 80.664 29.382 82.203 29.382C83.152 29.382 83.9985 29.1514 84.9475 28.6637L84.5115 31.4861ZM83.0235 24.7372C83.0235 24.5066 83.0495 24.3015 83.0495 24.1729C83.0495 23.249 82.5875 22.7102 81.7925 22.7102C80.946 22.7102 80.356 23.4286 80.0995 24.7372H83.0235Z" fill="white"/>
<path fill-rule="evenodd" clip-rule="evenodd" d="M8.233 20.7341C7.72 20.375 7.002 20.0928 6.0275 20.0928C4.95 20.0928 4.1035 20.3234 4.1035 21.4525C4.1035 23.4545 8.0025 22.7101 8.0025 27.0213C8.0025 30.9472 5.4375 31.9737 3.1035 31.9737C2.0775 31.9737 0.872 31.6401 0 31.2294L0.641 28.3554C1.18 28.8432 2.2315 29.1769 3.129 29.1769C3.9755 29.1769 5.258 28.9457 5.258 27.483C5.258 25.1994 1.3595 26.0463 1.3595 22.0428C1.3595 18.3734 3.642 17.2954 5.848 17.2954C7.079 17.2954 8.259 17.475 8.9255 17.9372L8.233 20.7341Z" fill="white"/>
<path fill-rule="evenodd" clip-rule="evenodd" d="M23.8275 31.4861C23.2885 31.7427 22.545 31.9228 21.4675 31.9228C19.1595 31.9228 17.723 29.6131 17.723 26.7902C17.723 23.0949 19.8005 20.1699 22.8525 20.1699C23.5195 20.1699 24.5455 20.4521 25.3405 20.9138L24.7505 23.6086C24.1865 23.2234 23.5965 22.9923 22.981 22.9923C21.57 22.9923 20.5445 24.3015 20.5445 26.6106C20.5445 27.9453 21.288 29.0484 22.4425 29.0484C23.135 29.0484 23.622 28.8948 24.212 28.5611L23.8275 31.4861Z" fill="white"/>
<path fill-rule="evenodd" clip-rule="evenodd" d="M33.7275 28.6378C33.5995 29.6132 33.471 30.5627 33.394 31.5632H30.855L31.06 29.7413H31.0345C30.2395 30.9734 29.4185 31.8198 27.9565 31.8198C26.3665 31.8198 25.4945 30.1265 25.4945 27.9454C25.4945 27.1755 25.5455 26.7648 25.6995 25.5842L26.418 20.3496H29.2645L28.4955 25.6097C28.4185 26.1745 28.316 26.7393 28.316 27.3291C28.316 27.9964 28.6235 28.6638 29.393 28.6122C30.5475 28.6122 31.2395 27.201 31.445 25.5332L32.24 20.3496H34.9845L33.7275 28.6378Z" fill="white"/>
<path fill-rule="evenodd" clip-rule="evenodd" d="M87.153 31.435H86.717V29.5616H86.1015V29.1514H87.7685V29.5616H87.153V31.435Z" fill="white"/>
<path fill-rule="evenodd" clip-rule="evenodd" d="M90 31.435H89.5895V29.5361L89.205 31.435H88.7945L88.41 29.5361V31.435H87.9995V29.1514H88.6405L89 30.9473H89.0255L89.3845 29.1514H90V31.435Z" fill="white"/>
</svg>