<svg xmlns="http://www.w3.org/2000/svg" width="74" height="37" viewBox="0 0 74 37" fill="none">
<mask id="mask0" mask-type="alpha" maskUnits="userSpaceOnUse" x="0" y="0" width="74" height="38">
<path d="M3.9413 12.978L0 0.846191H1.68913L3.57935 6.81131C4.10217 8.46381 4.54456 9.91479 4.8663 11.3658H4.90652C5.22826 9.9551 5.75109 8.42351 6.27391 6.85162L8.325 0.846191H10.0141L5.67065 12.978H3.9413Z" fill="#1A1F71"/>
<path d="M10.8586 8.90716C10.8989 11.0433 12.2662 11.93 13.8347 11.93C14.9608 11.93 15.6445 11.7285 16.2478 11.4867L16.5293 12.6152C15.9662 12.857 15.001 13.1392 13.6336 13.1392C10.9391 13.1392 9.37059 11.3658 9.37059 8.74594C9.37059 6.12613 10.8989 4.03027 13.4325 4.03027C16.288 4.03027 17.0119 6.52918 17.0119 8.14137C17.0119 8.46381 16.9717 8.70564 16.9717 8.86686L10.8586 8.90716ZM15.4836 7.77863C15.5239 6.77101 15.0815 5.19911 13.2717 5.19911C11.663 5.19911 10.9793 6.6904 10.8586 7.77863H15.4836Z" fill="#1A1F71"/>
<path d="M18.2587 6.97275C18.2587 5.96513 18.2587 5.07842 18.1783 4.27233H19.5457L19.5859 5.96513H19.6663C20.0685 4.79629 21.0337 4.0708 22.0794 4.0708C22.2402 4.0708 22.4011 4.0708 22.5217 4.11111V5.60239C22.3609 5.56208 22.2 5.56208 21.9989 5.56208C20.8728 5.56208 20.1087 6.40848 19.8674 7.57733C19.8272 7.77885 19.787 8.06098 19.787 8.30281V12.9379H18.2185V6.97275H18.2587Z" fill="#1A1F71"/>
<path d="M25.2565 1.81377C25.2565 2.33774 24.8945 2.78109 24.2511 2.78109C23.688 2.78109 23.2858 2.33774 23.2858 1.81377C23.2858 1.24951 23.688 0.806152 24.2913 0.806152C24.8543 0.806152 25.2565 1.24951 25.2565 1.81377ZM23.4869 4.27237H25.0554V12.9782H23.4869V4.27237Z" fill="#1A1F71"/>
<path d="M27.1467 12.9782V5.48146H25.9402V4.27232H27.1467V3.86927C27.1467 2.66012 27.4282 1.53159 28.1521 0.806098C28.7554 0.241829 29.5195 0 30.2836 0C30.8467 0 31.3293 0.120915 31.651 0.241829L31.4499 1.45098C31.2086 1.33006 30.8869 1.24945 30.4445 1.24945C29.1173 1.24945 28.7554 2.41829 28.7554 3.78866V4.27232H30.8467V5.48146H28.7554V12.9782H27.1467Z" fill="#1A1F71"/>
<path d="M34.1043 1.81377C34.1445 2.33774 33.7424 2.78109 33.0989 2.78109C32.5358 2.78109 32.1337 2.33774 32.1337 1.81377C32.1337 1.24951 32.5358 0.806152 33.1391 0.806152C33.7424 0.806152 34.1043 1.24951 34.1043 1.81377ZM32.3348 4.27237H33.9032V12.9782H32.3348V4.27237Z" fill="#1A1F71"/>
<path d="M36.7184 8.90716C36.7587 11.0433 38.1261 11.93 39.6945 11.93C40.8206 11.93 41.5043 11.7285 42.1076 11.4867L42.3891 12.6152C41.8261 12.857 40.8608 13.1392 39.4935 13.1392C36.7989 13.1392 35.2304 11.3658 35.2304 8.74594C35.2304 6.12613 36.7587 4.03027 39.2924 4.03027C42.1478 4.03027 42.8717 6.52918 42.8717 8.14137C42.8717 8.46381 42.8315 8.70564 42.8315 8.86686L36.7184 8.90716ZM41.3434 7.77863C41.3434 6.77101 40.9413 5.19911 39.1315 5.19911C37.5228 5.19911 36.8391 6.6904 36.7184 7.77863H41.3434Z" fill="#1A1F71"/>
<path d="M51.6392 0.201416V10.721C51.6392 11.4868 51.6392 12.3735 51.7196 12.9781H50.312L50.2316 11.4465H50.1913C49.7087 12.4138 48.6631 13.1393 47.2153 13.1393C45.124 13.1393 43.5153 11.3659 43.5153 8.70575C43.5153 5.80379 45.2848 4.03038 47.4163 4.03038C48.7435 4.03038 49.6283 4.67526 50.0305 5.36044H50.0707V0.201416H51.6392ZM50.0707 7.81904C50.0707 7.61751 50.0707 7.33538 49.9903 7.13386C49.749 6.12623 48.9044 5.27983 47.6979 5.27983C46.049 5.27983 45.0837 6.73081 45.0837 8.66544C45.0837 10.4389 45.9283 11.8898 47.6577 11.8898C48.7033 11.8898 49.6685 11.2046 49.9903 9.9955C50.0305 9.79398 50.0707 9.55215 50.0707 9.31032V7.81904Z" fill="#1A1F71"/>
<path d="M57.4706 12.9781C57.5109 12.3735 57.5511 11.4868 57.5511 10.721V0.201416H59.1196V5.68288H59.1598C59.7228 4.71556 60.7283 4.07068 62.1359 4.07068C64.3076 4.07068 65.8359 5.8844 65.7956 8.50422C65.7956 11.6077 63.825 13.1796 61.8946 13.1796C60.6478 13.1796 59.6424 12.6959 58.9989 11.5271H58.9587L58.8783 12.9781H57.4706ZM59.1196 9.47154C59.1196 9.67306 59.1598 9.87459 59.2 10.0358C59.5217 11.124 60.4065 11.8898 61.5728 11.8898C63.2217 11.8898 64.2272 10.5195 64.2272 8.54453C64.2272 6.81142 63.3424 5.32014 61.6533 5.32014C60.5674 5.32014 59.562 6.04562 59.2402 7.25477C59.2 7.41599 59.1598 7.65782 59.1598 7.89965V9.47154H59.1196V9.47154Z" fill="#1A1F71"/>
<path d="M67.5249 4.27222L69.4152 9.43124C69.6162 9.99551 69.8173 10.6807 69.9782 11.2047H70.0184C70.1793 10.6807 70.3402 9.99551 70.5815 9.39094L72.3108 4.27222H73.9999L71.6271 10.4792C70.501 13.4617 69.7369 14.9933 68.651 15.9203C67.8869 16.6055 67.1228 16.8876 66.7206 16.9279L66.3184 15.5979C66.7206 15.477 67.2434 15.2351 67.6858 14.8321C68.1282 14.5097 68.651 13.8648 69.013 13.0587C69.0934 12.8975 69.1336 12.7765 69.1336 12.6959C69.1336 12.6153 69.0934 12.4944 69.013 12.2929L65.7956 4.27222H67.5249Z" fill="#1A1F71"/>
<path d="M26.2217 18.9033L21.4358 31.0351L19.5054 20.717C19.2641 19.5482 18.3793 18.9033 17.3739 18.9033H9.53149L9.41084 19.4273C11.0195 19.79 12.8293 20.3543 13.9554 20.9589C14.6391 21.3216 14.8402 21.6441 15.0413 22.5308L18.7011 36.7584H23.6076L31.088 18.9033H26.2217V18.9033Z" fill="#1A1F71"/>
<path d="M33.0587 18.9033L29.238 36.7584H33.863L37.6435 18.9033H33.0587Z" fill="#1A1F71"/>
<path d="M43.7163 23.8607C43.7163 23.2159 44.3598 22.5307 45.6869 22.3695C46.3304 22.2889 48.1804 22.2082 50.2315 23.1756L51.0358 19.3869C49.9098 18.9839 48.5021 18.5808 46.7326 18.5808C42.188 18.5808 38.9706 20.9991 38.9304 24.5056C38.8902 27.0851 41.2228 28.4958 42.9521 29.3422C44.7619 30.2289 45.3652 30.7529 45.325 31.559C45.325 32.7681 43.8771 33.2921 42.5902 33.2921C40.2576 33.3324 38.9304 32.6472 37.8445 32.1636L37 36.0731C38.0858 36.5568 40.0565 37.0001 42.1076 37.0001C46.9337 37.0001 50.1108 34.6222 50.1108 30.8738C50.1913 26.2387 43.6761 25.9566 43.7163 23.8607Z" fill="#1A1F71"/>
<path d="M57.0283 30.4303L59.4815 23.7397L60.8489 30.4303H57.0283ZM58.7978 18.9031C57.9131 18.9031 57.1489 19.4271 56.8272 20.1929L49.9098 36.7179H54.7359L55.7011 34.0577H61.6131L62.1761 36.7179H66.4391L62.7391 18.8628H58.7978V18.9031V18.9031Z" fill="#1A1F71"/>
</mask>
<g mask="url(#mask0)">
<path d="M-13.1555 6.65724L71.2439 -24.6667L90.4444 27.876L6.04583 59.2" fill="white"/>
</g>
</svg>