<svg xmlns="http://www.w3.org/2000/svg" width="66" height="22" viewBox="0 0 66 22" fill="none">
<mask id="mask0" mask-type="alpha" maskUnits="userSpaceOnUse" x="0" y="0" width="66" height="22">
<path fill-rule="evenodd" clip-rule="evenodd" d="M34.1336 7.14796C34.0959 10.1412 36.7794 11.8117 38.8009 12.8048C40.8779 13.8239 41.5755 14.4773 41.5675 15.3884C41.5517 16.7832 39.9107 17.3986 38.3748 17.4226C35.6953 17.4645 34.1375 16.6932 32.8989 16.1098L31.9337 20.6636C33.1763 21.2411 35.4773 21.7446 37.8634 21.7666C43.4642 21.7666 47.1286 18.9792 47.1485 14.6571C47.1703 9.17211 39.6233 8.86839 39.6749 6.41663C39.6927 5.67331 40.3963 4.88003 41.9381 4.67822C42.7012 4.57631 44.8079 4.49838 47.196 5.60737L48.1335 1.20139C46.8492 0.729823 45.1983 0.278234 43.1431 0.278234C37.8714 0.278234 34.1633 3.10365 34.1336 7.14796M57.1411 0.65792C56.1185 0.65792 55.2564 1.25937 54.8719 2.18253L46.8711 21.4429H52.4679L53.5817 18.3398H60.4211L61.0672 21.4429H66.0001L61.6955 0.65792H57.1411M57.924 6.27268L59.5392 14.0775H55.1157L57.924 6.27268M27.3477 0.65792L22.936 21.4429H28.2692L32.6789 0.65792H27.3477M19.4579 0.65792L13.9067 14.805L11.6613 2.77598C11.3977 1.43321 10.3572 0.65792 9.20179 0.65792H0.126839L0 1.26137C1.86295 1.66899 3.97958 2.32639 5.26185 3.02975C6.04666 3.45936 6.27061 3.83502 6.52826 4.85608L10.7813 21.4429L16.4178 21.4429L25.0587 0.65792H19.4579" fill="white"/>
</mask>
<g mask="url(#mask0)">
<path d="M-6.91139 2.84435L58.1181 -21.3016L72.9121 19.2007L7.88321 43.3467" fill="white"/>
</g>
</svg>